
General
Complete name : F:Ultraviolet (2006) + BonusUltraviolet (2006).avi
Format : AVI
Format/Info : Audio Video Interleave
File size : 1.56 GiB
Duration : 1h 23mn
Overall bit rate : 2 666 Kbps
Writing application : VirtualDubMod 1.5.4.1 (build 2178/release)
Writing library : VirtualDubMod build 2178/release

Video
ID : 0
Format : MPEG-4 Visual
Format profile : Advanced Simple@L5
Format settings, BVOP : No
Format settings, QPel : No
Format settings, GMC : No warppoints
Format settings, Matrix : Custom
Codec ID : XVID
Codec ID/Hint : XviD
Duration : 1h 23mn
Bit rate : 1 761 Kbps
Width : 720 pixels
Height : 384 pixels
Display aspect ratio : 1.875
Frame rate : 25.000 fps
Color space : YUV
Chroma subsampling : 4:2:0
Bit depth : 8 bits
Scan type : Progressive
Bits/(Pixel*Frame) : 0.255
Stream size : 1.03 GiB (66%)
Writing library : XviD 1.2.1 (UTC 2008-12-04)

Audio #1
ID : 1
Format : AC-3
Format/Info : Audio Coding 3
Mode extension : CM (complete main)
Codec ID : 2000
Duration : 1h 23mn
Bit rate mode : Constant
Bit rate : 448 Kbps
Channel(s) : 6 channels
Channel positions : Front: L C R, Side: L R, LFE
Sampling rate : 48.0 KHz
Bit depth : 16 bits
Stream size : 269 MiB (17%)
Alignment : Aligned on interleaves
Interleave, duration : 96 ms (2.40 video frames)
Interleave, preload duration : 96 ms
Language : Italian

Audio #2
ID : 2
Format : AC-3
Format/Info : Audio Coding 3
Mode extension : CM (complete main)
Codec ID : 2000
Duration : 1h 23mn
Bit rate mode : Constant
Bit rate : 448 Kbps
Channel(s) : 6 channels
Channel positions : Front: L C R, Side: L R, LFE
Sampling rate : 48.0 KHz
Bit depth : 16 bits
Stream size : 269 MiB (17%)
Alignment : Aligned on interleaves
Interleave, duration : 96 ms (2.40 video frames)
Interleave, preload duration : 96 ms
Language : English


dati file bonus 1

General
Complete name : F:Ultraviolet (2006) + BonusBonus 1Bonus 1.avi
Format : AVI
Format/Info : Audio Video Interleave
File size : 300 MiB
Duration : 30mn 53s
Overall bit rate : 1 356 Kbps
Writing application : VirtualDubMod 1.5.4.1 (build 2178/release)
Writing library : VirtualDubMod build 2178/release

Video
ID : 0
Format : MPEG-4 Visual
Format profile : Advanced Simple@L5
Format settings, BVOP : Yes
Format settings, QPel : No
Format settings, GMC : No warppoints
Format settings, Matrix : Custom
Codec ID : XVID
Codec ID/Hint : XviD
Duration : 30mn 53s
Bit rate : 1 157 Kbps
Width : 720 pixels
Height : 544 pixels
Display aspect ratio : 4:3
Frame rate : 25.000 fps
Color space : YUV
Chroma subsampling : 4:2:0
Bit depth : 8 bits
Scan type : Progressive
Bits/(Pixel*Frame) : 0.118
Stream size : 256 MiB (85%)
Writing library : XviD 1.2.1 (UTC 2008-12-04)

Audio
ID : 1
Format : AC-3
Format/Info : Audio Coding 3
Format profile : Dolby Digital
Mode extension : CM (complete main)
Codec ID : 2000
Duration : 30mn 53s
Bit rate mode : Constant
Bit rate : 192 Kbps
Channel(s) : 2 channels
Channel positions : Front: L R
Sampling rate : 48.0 KHz
Bit depth : 16 bits
Stream size : 42.4 MiB (14%)
Alignment : Aligned on interleaves
Interleave, duration : 96 ms (2.40 video frames)
Interleave, preload duration : 96 ms
Language : English